<svg width="302" height="191" viewBox="0 0 302 191" fill="none" xmlns="http://www.w3.org/2000/svg">
<path d="M148.656 160.486L161.022 165.902L161.048 165.842L161.074 165.782L148.656 160.486ZM133.938 174.886L137.933 187.781L139.134 187.409L140.246 186.822L133.938 174.886ZM123.368 176.999L123.368 163.499L123.368 163.499L123.368 176.999ZM41.4286 177L41.4286 190.5L41.4287 190.5L41.4286 177ZM30.7247 174.886L25.4237 187.302L25.4829 187.327L25.5424 187.352L30.7247 174.886ZM16.1408 160.487L3.72277 165.782L3.74848 165.843L3.77478 165.903L16.1408 160.487ZM16.1408 31.0631L28.5068 36.479L28.5331 36.419L28.5588 36.3587L16.1408 31.0631ZM22.0279 22.4762L31.3367 32.2535L31.4256 32.1689L31.5129 32.0827L22.0279 22.4762ZM30.7247 16.6635L36.0258 29.0792L36.1028 29.0463L36.1794 29.0125L30.7247 16.6635ZM41.4286 14.4177L41.4289 0.917725H41.4286V14.4177ZM123.368 14.4196L123.368 27.9196L123.369 27.9196L123.368 14.4196ZM281.5 176.999L270.74 185.153L274.791 190.499L281.499 190.499L281.5 176.999ZM158.5 16.6635L151.411 28.1527L151.411 28.1527L158.5 16.6635ZM288 177L287.999 190.5L301.5 190.501V177H288ZM148.656 30.9328L161.074 25.6372L161.048 25.5769L161.022 25.5169L148.656 30.9328ZM133.938 16.5333L140.246 4.59735L140.215 4.58104L140.184 4.5649L133.938 16.5333ZM150.797 14.4181L152.245 0.995955L151.522 0.918024L150.796 0.918063L150.797 14.4181ZM165.071 23.3459L154.28 31.4574L154.295 31.4783L154.311 31.4991L165.071 23.3459ZM137.297 149.918C137.297 151.828 136.939 153.547 136.238 155.191L161.074 165.782C163.227 160.732 164.297 155.406 164.297 149.918H137.297ZM136.29 155.07C135.539 156.784 134.547 158.219 133.284 159.467L152.254 178.68C155.985 174.995 158.918 170.706 161.022 165.902L136.29 155.07ZM133.284 159.467C133.458 159.295 133.312 159.46 132.601 159.957C131.983 160.389 131.229 160.87 130.437 161.349C129.659 161.818 128.933 162.232 128.4 162.529C128.136 162.676 127.927 162.79 127.791 162.863C127.724 162.9 127.675 162.926 127.647 162.941C127.633 162.948 127.625 162.953 127.622 162.954C127.621 162.955 127.621 162.955 127.622 162.954C127.623 162.954 127.624 162.953 127.625 162.953C127.626 162.952 127.627 162.952 127.628 162.951C127.628 162.951 127.629 162.951 127.629 162.951C127.63 162.95 127.631 162.95 133.938 174.886C140.246 186.822 140.246 186.821 140.247 186.821C140.248 186.821 140.249 186.82 140.249 186.82C140.25 186.819 140.252 186.818 140.253 186.818C140.256 186.816 140.26 186.814 140.264 186.812C140.271 186.808 140.28 186.803 140.291 186.798C140.312 186.786 140.34 186.772 140.373 186.754C140.439 186.719 140.529 186.671 140.639 186.611C140.859 186.492 141.165 186.325 141.534 186.119C142.266 185.712 143.279 185.135 144.397 184.46C146.237 183.348 149.733 181.169 152.254 178.68L133.284 159.467ZM133.938 174.886C129.944 161.99 129.945 161.99 129.946 161.99C129.946 161.99 129.947 161.989 129.947 161.989C129.948 161.989 129.949 161.988 129.95 161.988C129.952 161.988 129.953 161.987 129.955 161.987C129.957 161.986 129.957 161.986 129.956 161.986C129.954 161.987 129.946 161.99 129.932 161.994C129.904 162.002 129.853 162.018 129.781 162.039C129.638 162.082 129.414 162.148 129.128 162.229C128.549 162.393 127.75 162.611 126.87 162.824C125.974 163.042 125.096 163.231 124.339 163.36C123.488 163.504 123.208 163.499 123.368 163.499V190.499C127.022 190.499 131.069 189.59 133.246 189.061C134.54 188.746 135.681 188.435 136.499 188.203C136.911 188.086 137.25 187.987 137.494 187.914C137.616 187.878 137.716 187.848 137.789 187.825C137.826 187.814 137.857 187.805 137.881 187.797C137.893 187.793 137.903 187.79 137.912 187.788C137.916 187.786 137.92 187.785 137.924 187.784C137.925 187.784 137.927 187.783 137.928 187.783C137.929 187.782 137.93 187.782 137.931 187.782C137.932 187.782 137.933 187.781 133.938 174.886ZM123.368 163.499L41.4285 163.5L41.4287 190.5L123.368 190.499L123.368 163.499ZM41.4286 163.5C39.4235 163.5 37.6199 163.133 35.9071 162.421L25.5424 187.352C30.6086 189.458 35.941 190.5 41.4286 190.5V163.5ZM36.0258 162.471C34.2483 161.712 32.7771 160.715 31.5129 159.467L12.5429 178.68C16.2737 182.364 20.6005 185.243 25.4237 187.302L36.0258 162.471ZM31.5129 159.467C30.2492 158.219 29.2573 156.784 28.5068 155.071L3.77478 165.903C5.87862 170.706 8.8114 174.996 12.5429 178.68L31.5129 159.467ZM28.5588 155.191C27.8577 153.547 27.5 151.828 27.5 149.918H0.5C0.5 155.406 1.5695 160.733 3.72277 165.782L28.5588 155.191ZM27.5 149.918V41.4995H0.5V149.918H27.5ZM27.5 41.4995C27.5 39.5889 27.8573 37.9619 28.5068 36.479L3.77478 25.6471C1.56987 30.6815 0.5 36.0121 0.5 41.4995H27.5ZM28.5588 36.3587C29.3056 34.6073 30.2422 33.2956 31.3367 32.2535L12.719 12.6989C8.81841 16.4127 5.83024 20.8255 3.72277 25.7675L28.5588 36.3587ZM31.5129 32.0827C32.7772 30.8344 34.2483 29.8381 36.0258 29.0792L25.4237 4.24786C20.6004 6.30722 16.2737 9.18604 12.5429 12.8697L31.5129 32.0827ZM36.1794 29.0125C37.8312 28.2829 39.5394 27.9177 41.4286 27.9177V0.917725C35.8251 0.917725 30.3974 2.04979 25.2701 4.31458L36.1794 29.0125ZM281.499 190.499L287.999 190.5L288.001 163.5L281.501 163.499L281.499 190.499ZM301.5 177V1H274.5V177H301.5ZM164.297 41.5013C164.297 36.0134 163.227 30.6865 161.074 25.6372L136.238 36.2284C136.939 37.8725 137.297 39.5913 137.297 41.5013H164.297ZM161.022 25.5169C158.918 20.7132 155.985 16.4237 152.254 12.7394L133.284 31.9524C134.547 33.2001 135.539 34.6351 136.29 36.3487L161.022 25.5169ZM152.254 12.7394C149.733 10.2501 146.237 8.07053 144.397 6.95928C143.279 6.28402 142.266 5.7072 141.534 5.29955C141.165 5.09408 140.859 4.92745 140.639 4.80821C140.529 4.74849 140.439 4.70038 140.373 4.66495C140.34 4.64722 140.312 4.63264 140.291 4.62134C140.28 4.61569 140.271 4.61085 140.264 4.60685C140.26 4.60484 140.256 4.60305 140.253 4.60147C140.252 4.60067 140.25 4.59994 140.249 4.59925C140.249 4.59891 140.248 4.59843 140.247 4.59826C140.246 4.5978 140.246 4.59735 133.938 16.5333C127.631 28.4692 127.63 28.4688 127.629 28.4684C127.629 28.4682 127.628 28.4678 127.628 28.4676C127.627 28.4671 127.626 28.4667 127.625 28.4663C127.624 28.4655 127.623 28.4649 127.622 28.4646C127.621 28.4638 127.621 28.4638 127.622 28.4645C127.625 28.4661 127.633 28.4706 127.647 28.478C127.675 28.4928 127.724 28.519 127.791 28.5556C127.927 28.629 128.136 28.7431 128.4 28.8899C128.933 29.1868 129.659 29.6008 130.437 30.0704C131.229 30.5488 131.983 31.0301 132.601 31.4621C133.312 31.9589 133.458 32.124 133.284 31.9524L152.254 12.7394ZM123.368 0.919559L41.4289 0.917725L41.4283 27.9177L123.368 27.9196L123.368 0.919559ZM164.297 149.918V41.5013H137.297V149.918H164.297ZM140.184 4.5649L137.246 3.03163L124.754 26.9684L127.693 28.5016L140.184 4.5649ZM165.589 5.17436C162.184 3.07386 158.408 2.13134 156.506 1.713C155.363 1.46168 154.36 1.29055 153.634 1.18046C153.266 1.1247 152.957 1.08276 152.723 1.05283C152.605 1.03783 152.505 1.02574 152.425 1.01635C152.385 1.01166 152.35 1.00763 152.32 1.00424C152.305 1.00254 152.291 1.00101 152.278 0.999628C152.272 0.998938 152.266 0.998288 152.261 0.997676C152.258 0.99737 152.255 0.997073 152.253 0.996787C152.251 0.996644 152.249 0.996435 152.249 0.996364C152.247 0.996158 152.245 0.995955 150.797 14.4181C149.349 27.8402 149.347 27.84 149.345 27.8398C149.344 27.8397 149.343 27.8395 149.341 27.8394C149.339 27.8391 149.337 27.8389 149.335 27.8386C149.33 27.8382 149.326 27.8377 149.322 27.8373C149.314 27.8364 149.308 27.8357 149.302 27.835C149.291 27.8338 149.283 27.8329 149.28 27.8325C149.274 27.8318 149.282 27.8328 149.305 27.8357C149.351 27.8415 149.448 27.8544 149.586 27.8753C149.87 27.9184 150.272 27.9872 150.707 28.083C151.962 28.3589 152.038 28.5391 151.411 28.1527L165.589 5.17436ZM150.796 0.918063L123.367 0.919559L123.369 27.9196L150.797 27.9181L150.796 0.918063ZM292.26 168.846L175.831 15.1927L154.311 31.4991L270.74 185.153L292.26 168.846ZM165.071 23.3459C175.863 15.2344 175.862 15.2334 175.861 15.2323C175.861 15.2319 175.86 15.2307 175.859 15.23C175.858 15.2284 175.857 15.2267 175.855 15.225C175.853 15.2215 175.85 15.2178 175.847 15.2137C175.841 15.2055 175.834 15.1961 175.826 15.1855C175.81 15.1643 175.79 15.1383 175.767 15.1078C175.72 15.0467 175.659 14.9671 175.585 14.8711C175.437 14.6796 175.234 14.4204 174.985 14.1105C174.494 13.4975 173.799 12.6529 172.976 11.724C171.647 10.2229 168.875 7.2021 165.589 5.17436L151.411 28.1527C151.019 27.9108 151.031 27.8542 151.473 28.2717C151.843 28.6216 152.288 29.0885 152.76 29.6215C153.22 30.1406 153.626 30.6325 153.915 30.9941C154.058 31.1715 154.165 31.3092 154.23 31.3926C154.262 31.4341 154.283 31.4616 154.292 31.4731C154.296 31.4789 154.297 31.4806 154.295 31.4781C154.294 31.4768 154.293 31.4745 154.29 31.471C154.289 31.4693 154.287 31.4673 154.286 31.4651C154.285 31.4639 154.284 31.4627 154.283 31.4614C154.282 31.4608 154.282 31.4598 154.281 31.4595C154.281 31.4584 154.28 31.4574 165.071 23.3459Z" fill="#2C292D"/>
</svg>
