<svg width="512" height="512" viewBox="0 0 512 512" fill="none" xmlns="http://www.w3.org/2000/svg">
<path d="M231 14.4338C246.47 5.50211 265.53 5.50212 281 14.4338L452.703 113.566C468.173 122.498 477.703 139.004 477.703 156.868V355.132C477.703 372.996 468.173 389.502 452.703 398.434L281 497.566C265.53 506.498 246.47 506.498 231 497.566L59.2975 398.434C43.8274 389.502 34.2975 372.996 34.2975 355.132V156.868C34.2975 139.004 43.8274 122.498 59.2975 113.566L231 14.4338Z" fill="#FF6188"/>
<path d="M253.656 327.486L266.022 332.902L266.048 332.842L266.074 332.782L253.656 327.486ZM238.938 341.886L242.933 354.781L244.134 354.409L245.246 353.822L238.938 341.886ZM228.368 343.999L228.368 330.499L228.368 330.499L228.368 343.999ZM146.429 344L146.429 357.5L146.429 357.5L146.429 344ZM135.725 341.886L130.424 354.302L130.483 354.327L130.542 354.352L135.725 341.886ZM121.141 327.487L108.723 332.782L108.748 332.843L108.775 332.903L121.141 327.487ZM121.141 198.063L133.507 203.479L133.533 203.419L133.559 203.359L121.141 198.063ZM127.028 189.476L136.337 199.253L136.426 199.169L136.513 199.083L127.028 189.476ZM135.725 183.664L141.026 196.079L141.103 196.046L141.179 196.012L135.725 183.664ZM146.429 181.418L146.429 167.918H146.429V181.418ZM228.368 181.42L228.368 194.92L228.369 194.92L228.368 181.42ZM386.5 343.999L375.74 352.153L379.791 357.499L386.499 357.499L386.5 343.999ZM263.5 183.664L256.411 195.153L256.411 195.153L263.5 183.664ZM393 344L392.999 357.5L406.5 357.501V344H393ZM253.656 197.933L266.074 192.637L266.048 192.577L266.022 192.517L253.656 197.933ZM238.938 183.533L245.246 171.597L245.215 171.581L245.184 171.565L238.938 183.533ZM255.797 181.418L257.245 167.996L256.522 167.918L255.796 167.918L255.797 181.418ZM270.071 190.346L259.28 198.457L259.295 198.478L259.311 198.499L270.071 190.346ZM242.297 316.918C242.297 318.828 241.939 320.547 241.238 322.191L266.074 332.782C268.227 327.732 269.297 322.406 269.297 316.918H242.297ZM241.29 322.07C240.539 323.784 239.547 325.219 238.284 326.467L257.254 345.68C260.985 341.995 263.918 337.706 266.022 332.902L241.29 322.07ZM238.284 326.467C238.458 326.295 238.312 326.46 237.601 326.957C236.983 327.389 236.229 327.87 235.437 328.349C234.659 328.818 233.933 329.232 233.4 329.529C233.136 329.676 232.927 329.79 232.791 329.863C232.724 329.9 232.675 329.926 232.647 329.941C232.633 329.948 232.625 329.953 232.622 329.954C232.621 329.955 232.621 329.955 232.622 329.954C232.623 329.954 232.624 329.953 232.625 329.953C232.626 329.952 232.627 329.952 232.628 329.951C232.628 329.951 232.629 329.951 232.629 329.951C232.63 329.95 232.631 329.95 238.938 341.886C245.246 353.822 245.246 353.821 245.247 353.821C245.248 353.821 245.249 353.82 245.249 353.82C245.25 353.819 245.252 353.818 245.253 353.818C245.256 353.816 245.26 353.814 245.264 353.812C245.271 353.808 245.28 353.803 245.291 353.798C245.312 353.786 245.34 353.772 245.373 353.754C245.439 353.719 245.529 353.671 245.639 353.611C245.859 353.492 246.165 353.325 246.534 353.119C247.266 352.712 248.279 352.135 249.397 351.46C251.237 350.348 254.733 348.169 257.254 345.68L238.284 326.467ZM238.938 341.886C234.944 328.99 234.945 328.99 234.946 328.99C234.946 328.99 234.947 328.989 234.947 328.989C234.948 328.989 234.949 328.988 234.95 328.988C234.952 328.988 234.953 328.987 234.955 328.987C234.957 328.986 234.957 328.986 234.956 328.986C234.954 328.987 234.946 328.99 234.932 328.994C234.904 329.002 234.853 329.018 234.781 329.039C234.638 329.082 234.414 329.148 234.128 329.229C233.549 329.393 232.75 329.611 231.87 329.824C230.974 330.042 230.096 330.231 229.339 330.36C228.488 330.504 228.208 330.499 228.368 330.499V357.499C232.022 357.499 236.069 356.59 238.246 356.061C239.54 355.746 240.681 355.435 241.499 355.203C241.911 355.086 242.25 354.987 242.494 354.914C242.616 354.878 242.716 354.848 242.789 354.825C242.826 354.814 242.857 354.805 242.881 354.797C242.893 354.793 242.903 354.79 242.912 354.788C242.916 354.786 242.92 354.785 242.924 354.784C242.925 354.784 242.927 354.783 242.928 354.783C242.929 354.782 242.93 354.782 242.931 354.782C242.932 354.782 242.933 354.781 238.938 341.886ZM228.368 330.499L146.428 330.5L146.429 357.5L228.368 357.499L228.368 330.499ZM146.429 330.5C144.423 330.5 142.62 330.133 140.907 329.421L130.542 354.352C135.609 356.458 140.941 357.5 146.429 357.5V330.5ZM141.026 329.471C139.248 328.712 137.777 327.715 136.513 326.467L117.543 345.68C121.274 349.364 125.6 352.243 130.424 354.302L141.026 329.471ZM136.513 326.467C135.249 325.219 134.257 323.784 133.507 322.071L108.775 332.903C110.879 337.706 113.811 341.996 117.543 345.68L136.513 326.467ZM133.559 322.191C132.858 320.547 132.5 318.828 132.5 316.918H105.5C105.5 322.406 106.57 327.733 108.723 332.782L133.559 322.191ZM132.5 316.918V208.499H105.5V316.918H132.5ZM132.5 208.499C132.5 206.589 132.857 204.962 133.507 203.479L108.775 192.647C106.57 197.682 105.5 203.012 105.5 208.499H132.5ZM133.559 203.359C134.306 201.607 135.242 200.296 136.337 199.253L117.719 179.699C113.818 183.413 110.83 187.826 108.723 192.767L133.559 203.359ZM136.513 199.083C137.777 197.834 139.248 196.838 141.026 196.079L130.424 171.248C125.6 173.307 121.274 176.186 117.543 179.87L136.513 199.083ZM141.179 196.012C142.831 195.283 144.539 194.918 146.429 194.918V167.918C140.825 167.918 135.397 169.05 130.27 171.315L141.179 196.012ZM386.499 357.499L392.999 357.5L393.001 330.5L386.501 330.499L386.499 357.499ZM406.5 344V168H379.5V344H406.5ZM269.297 208.501C269.297 203.013 268.227 197.687 266.074 192.637L241.238 203.228C241.939 204.872 242.297 206.591 242.297 208.501H269.297ZM266.022 192.517C263.918 187.713 260.985 183.424 257.254 179.739L238.284 198.952C239.547 200.2 240.539 201.635 241.29 203.349L266.022 192.517ZM257.254 179.739C254.733 177.25 251.237 175.071 249.397 173.959C248.279 173.284 247.266 172.707 246.534 172.3C246.165 172.094 245.859 171.927 245.639 171.808C245.529 171.748 245.439 171.7 245.373 171.665C245.34 171.647 245.312 171.633 245.291 171.621C245.28 171.616 245.271 171.611 245.264 171.607C245.26 171.605 245.256 171.603 245.253 171.601C245.252 171.601 245.25 171.6 245.249 171.599C245.249 171.599 245.248 171.598 245.247 171.598C245.246 171.598 245.246 171.597 238.938 183.533C232.631 195.469 232.63 195.469 232.629 195.468C232.629 195.468 232.628 195.468 232.628 195.468C232.627 195.467 232.626 195.467 232.625 195.466C232.624 195.466 232.623 195.465 232.622 195.465C232.621 195.464 232.621 195.464 232.622 195.465C232.625 195.466 232.633 195.471 232.647 195.478C232.675 195.493 232.724 195.519 232.791 195.556C232.927 195.629 233.136 195.743 233.4 195.89C233.933 196.187 234.659 196.601 235.437 197.07C236.229 197.549 236.983 198.03 237.601 198.462C238.312 198.959 238.458 199.124 238.284 198.952L257.254 179.739ZM228.368 167.92L146.429 167.918L146.428 194.918L228.368 194.92L228.368 167.92ZM269.297 316.918V208.501H242.297V316.918H269.297ZM245.184 171.565L242.246 170.032L229.754 193.968L232.693 195.502L245.184 171.565ZM270.589 172.174C267.184 170.074 263.408 169.131 261.506 168.713C260.363 168.462 259.36 168.291 258.634 168.18C258.266 168.125 257.957 168.083 257.723 168.053C257.605 168.038 257.505 168.026 257.425 168.016C257.385 168.012 257.35 168.008 257.32 168.004C257.305 168.003 257.291 168.001 257.278 168C257.272 167.999 257.266 167.998 257.261 167.998C257.258 167.997 257.255 167.997 257.253 167.997C257.251 167.997 257.249 167.996 257.249 167.996C257.247 167.996 257.245 167.996 255.797 181.418C254.349 194.84 254.347 194.84 254.345 194.84C254.344 194.84 254.343 194.84 254.341 194.839C254.339 194.839 254.337 194.839 254.335 194.839C254.33 194.838 254.326 194.838 254.322 194.837C254.314 194.836 254.308 194.836 254.302 194.835C254.291 194.834 254.283 194.833 254.28 194.833C254.274 194.832 254.282 194.833 254.305 194.836C254.351 194.841 254.448 194.854 254.586 194.875C254.87 194.918 255.272 194.987 255.707 195.083C256.962 195.359 257.038 195.539 256.411 195.153L270.589 172.174ZM255.796 167.918L228.367 167.92L228.369 194.92L255.797 194.918L255.796 167.918ZM397.26 335.846L280.831 182.193L259.311 198.499L375.74 352.153L397.26 335.846ZM270.071 190.346C280.863 182.234 280.862 182.233 280.861 182.232C280.861 182.232 280.86 182.231 280.859 182.23C280.858 182.228 280.857 182.227 280.855 182.225C280.853 182.222 280.85 182.218 280.847 182.214C280.841 182.206 280.834 182.196 280.826 182.186C280.81 182.164 280.79 182.138 280.767 182.108C280.72 182.047 280.659 181.967 280.585 181.871C280.437 181.68 280.234 181.42 279.985 181.111C279.494 180.497 278.799 179.653 277.976 178.724C276.647 177.223 273.875 174.202 270.589 172.174L256.411 195.153C256.019 194.911 256.031 194.854 256.473 195.272C256.843 195.622 257.288 196.088 257.76 196.622C258.22 197.141 258.626 197.633 258.915 197.994C259.058 198.172 259.165 198.309 259.23 198.393C259.262 198.434 259.283 198.462 259.292 198.473C259.296 198.479 259.297 198.481 259.295 198.478C259.294 198.477 259.293 198.474 259.29 198.471C259.289 198.469 259.287 198.467 259.286 198.465C259.285 198.464 259.284 198.463 259.283 198.461C259.282 198.461 259.282 198.46 259.281 198.459C259.281 198.458 259.28 198.457 270.071 190.346Z" fill="#2C292D"/>
</svg>
